<?xml version="1.0" standalone="no"?>
<!DOCTYPE svg PUBLIC "-//W3C//DTD SVG 20010904//EN"
 "http://www.w3.org/TR/2001/REC-SVG-20010904/DTD/svg10.dtd">
<svg version="1.0" xmlns="http://www.w3.org/2000/svg"
 width="507.000000pt" height="107.000000pt" viewBox="0 0 507.000000 107.000000"
 preserveAspectRatio="xMidYMid meet">
<metadata>
Created by potrace 1.15, written by Peter Selinger 2001-2017
</metadata>
<g transform="translate(0.000000,107.000000) scale(0.100000,-0.100000)"
fill="#000000" stroke="none">
<path d="M344 691 c4 -5 2 -11 -4 -13 -6 -2 -7 -14 -1 -35 7 -26 7 -31 -5 -26
-8 3 -14 8 -14 12 0 4 -18 5 -40 3 -22 -2 -40 -9 -40 -14 0 -7 15 -8 41 -4 26
4 38 3 34 -4 -3 -5 -21 -10 -38 -11 -18 0 -26 -3 -19 -6 26 -10 10 -20 -29
-18 -31 2 -39 -1 -35 -12 5 -12 0 -13 -24 -8 -20 4 -30 3 -30 -5 0 -6 -5 -8
-10 -5 -5 3 -10 -1 -10 -11 0 -11 6 -15 20 -11 11 3 18 1 14 -4 -3 -5 -1 -9 5
-9 5 0 13 5 16 10 3 6 11 10 17 10 6 0 6 -6 -2 -15 -11 -13 -10 -15 1 -11 8 2
26 7 42 10 15 4 27 13 27 21 0 8 5 15 10 15 6 0 10 -6 10 -14 0 -8 4 -17 9
-20 5 -4 7 12 4 36 l-4 43 19 -22 c25 -28 36 -30 22 -4 -13 25 -13 31 0 31 6
0 10 -7 10 -15 0 -8 9 -23 20 -32 27 -23 26 -27 -15 -48 -32 -18 -41 -42 -23
-60 3 -4 38 -3 77 1 40 3 69 9 66 12 -8 8 -80 6 -94 -3 -23 -14 -35 11 -17 36
9 13 16 18 16 11 0 -6 9 -12 21 -12 11 0 18 -4 14 -9 -3 -6 16 -8 45 -7 27 2
50 0 50 -3 0 -15 -25 -31 -48 -31 -13 0 -21 -4 -18 -9 3 -5 19 -7 35 -5 23 3
30 -1 34 -18 4 -12 2 -28 -4 -34 -13 -16 -42 -6 -35 11 3 8 -6 14 -23 17 -23
3 -27 1 -23 -15 4 -16 -1 -18 -38 -15 -44 3 -71 28 -31 28 12 0 21 5 21 10 0
15 -11 12 -53 -10 -45 -24 -108 -31 -114 -12 -3 8 5 12 22 12 l27 0 -22 18
c-13 11 -22 29 -22 45 0 16 -6 27 -14 27 -8 0 -14 -6 -14 -14 0 -8 -7 -17 -16
-20 -8 -3 -12 -2 -9 4 4 6 4 19 0 29 -6 19 -7 19 -40 -2 -25 -16 -34 -29 -35
-50 0 -16 -5 -37 -10 -48 -8 -13 -7 -19 0 -19 7 0 9 -8 5 -20 -7 -23 -2 -25
26 -10 14 8 19 7 19 -3 0 -7 8 -13 19 -13 13 0 17 6 14 21 -4 16 -3 17 6 5 6
-8 11 -25 11 -38 0 -14 4 -21 11 -16 6 3 8 17 5 30 l-6 24 169 0 c161 0 169 1
174 20 3 11 11 19 18 18 7 -2 15 6 17 17 3 16 1 18 -9 8 -19 -19 -24 -16 -25
12 -2 21 1 23 16 15 30 -16 42 -13 31 8 -6 10 -6 24 -1 32 9 15 4 30 -11 30
-5 0 -9 -11 -9 -25 0 -16 -6 -25 -15 -25 -37 0 -8 47 56 91 l24 17 -27 -2
c-14 0 -24 -4 -22 -7 8 -14 -25 -31 -42 -21 -15 8 -14 11 7 27 22 16 16 16
-24 0 -14 -6 -77 76 -77 101 0 11 -6 13 -20 9 -13 -4 -22 -1 -26 9 -3 9 -15
16 -26 16 -10 0 -17 -4 -14 -9z"/>
<path d="M810 471 c0 -20 3 -22 12 -13 7 7 20 12 30 12 15 0 18 -9 18 -65 0
-37 -4 -65 -10 -65 -5 0 -10 -3 -10 -8 0 -4 18 -8 40 -8 22 -1 40 2 40 7 0 5
-4 9 -9 9 -5 0 -11 29 -13 65 -2 54 0 65 13 65 8 0 20 -5 27 -12 9 -9 12 -9
12 0 0 7 5 12 10 12 6 0 10 -28 10 -65 0 -37 -4 -65 -10 -65 -5 0 -10 -4 -10
-9 0 -4 18 -8 40 -8 22 0 40 4 40 8 0 5 -4 9 -10 9 -5 0 -10 14 -10 30 0 28 3
30 35 30 32 0 35 -2 35 -30 0 -16 -4 -30 -10 -30 -5 0 -10 -3 -10 -8 0 -4 18
-8 40 -8 22 -1 40 2 40 7 0 5 -4 9 -9 9 -5 0 -11 29 -13 65 -1 36 0 65 5 65 4
0 7 5 7 10 0 6 -16 10 -35 10 -19 0 -35 -4 -35 -10 0 -5 5 -10 10 -10 6 0 10
-9 10 -20 0 -16 -7 -20 -35 -20 -28 0 -35 4 -35 20 0 11 5 20 10 20 6 0 10 4
10 9 0 6 -52 11 -115 13 l-115 3 0 -24z"/>
<path d="M2243 488 c-33 -16 -30 -58 7 -93 37 -35 38 -45 5 -45 -16 0 -25 6
-25 15 0 8 -4 15 -10 15 -5 0 -10 -8 -10 -17 0 -14 -5 -12 -27 10 -21 21 -25
29 -15 39 15 15 15 51 0 66 -14 14 -108 16 -108 2 0 -5 5 -10 10 -10 6 0 10
-26 10 -59 0 -33 -4 -63 -10 -66 -20 -12 -9 -21 25 -21 34 0 45 9 25 21 -12 7
-14 45 -2 45 4 0 18 -14 32 -30 34 -41 108 -52 139 -21 29 29 26 48 -9 81 -16
15 -30 33 -30 39 0 14 27 14 35 1 8 -13 25 -13 25 -1 0 11 -29 41 -38 40 -4 0
-17 -5 -29 -11z"/>
<path d="M2370 492 l-35 -3 0 -82 0 -83 33 0 c17 0 32 4 32 8 0 4 -4 8 -10 8
-6 0 -10 28 -10 65 0 37 4 65 10 65 6 0 10 -5 10 -12 0 -9 3 -9 12 0 7 7 20
12 30 12 15 0 18 -9 18 -65 0 -37 -4 -65 -10 -65 -5 0 -10 -3 -10 -8 0 -4 18
-8 40 -8 22 -1 40 2 40 7 0 5 -4 9 -9 9 -5 0 -11 29 -13 65 -2 54 0 65 13 65
8 0 20 -5 27 -12 9 -9 12 -9 12 3 0 18 41 -49 43 -70 0 -9 -2 -27 -6 -41 -6
-24 -4 -26 28 -26 34 0 45 9 25 21 -26 16 14 125 46 125 8 0 14 5 14 10 0 6
-14 10 -32 10 -17 0 -29 -3 -25 -6 3 -4 -1 -21 -10 -38 l-17 -31 -15 37 -16
37 -90 3 c-49 2 -106 2 -125 0z"/>
<path d="M2793 485 c-60 -26 -71 -89 -24 -136 33 -32 58 -36 100 -14 54 27 64
110 17 140 -35 22 -59 25 -93 10z"/>
<path d="M3877 493 c-56 -3 -78 -7 -75 -16 3 -7 -1 -30 -7 -52 l-12 -40 -19
53 c-10 28 -23 51 -28 49 -5 -2 -17 -25 -26 -53 l-17 -49 -12 36 c-6 20 -9 43
-5 52 5 14 0 17 -30 17 -20 0 -36 -4 -36 -10 0 -5 4 -10 10 -10 5 0 20 -34 32
-75 13 -41 26 -75 29 -75 4 0 17 24 29 53 l23 52 20 -52 c11 -29 23 -53 27
-53 3 0 17 34 30 75 18 57 28 75 42 75 15 0 18 -9 18 -59 0 -33 -4 -63 -10
-66 -22 -13 -8 -20 38 -19 26 1 50 2 55 3 11 2 8 41 -3 41 -5 0 -10 -4 -10
-10 0 -5 -9 -10 -20 -10 -15 0 -20 7 -20 26 0 23 3 25 25 20 21 -5 25 -3 25
14 0 17 -4 19 -25 14 -22 -5 -25 -3 -25 20 0 26 22 36 35 16 11 -18 23 -10 23
15 0 14 -1 24 -2 23 0 -1 -36 -4 -79 -5z"/>
<path d="M4002 484 c-30 -21 -28 -51 8 -84 17 -15 30 -33 30 -39 0 -17 -40
-13 -46 4 -9 23 -24 18 -24 -9 0 -38 54 -50 83 -18 24 27 21 47 -13 85 -16 19
-30 37 -30 41 0 12 38 6 43 -6 3 -10 9 -10 26 0 43 25 51 17 51 -53 0 -37 -4
-65 -10 -65 -5 0 -10 -4 -10 -9 0 -4 18 -8 40 -8 22 0 40 4 40 8 0 5 -4 9 -10
9 -6 0 -10 28 -10 65 0 66 10 81 38 53 15 -15 24 -6 16 16 -5 13 -20 16 -75
16 -48 0 -69 -4 -69 -12 0 -9 -2 -10 -8 -2 -13 20 -47 24 -70 8z"/>
<path d="M1700 480 c0 -5 5 -10 10 -10 6 0 10 -28 10 -65 0 -37 -4 -65 -10
-65 -5 0 -10 -3 -10 -8 0 -4 18 -8 40 -8 22 -1 40 2 40 7 0 5 -4 9 -10 9 -6 0
-10 28 -10 65 0 87 19 86 57 -6 16 -39 33 -70 38 -70 5 0 22 31 38 70 38 92
57 93 57 6 0 -37 -4 -65 -10 -65 -5 0 -10 -4 -10 -9 0 -4 23 -8 51 -7 37 1 55
6 63 18 5 9 6 21 2 25 -5 4 -11 2 -13 -4 -3 -7 -13 -13 -24 -13 -14 0 -19 7
-19 25 0 27 18 33 38 13 9 -9 12 -6 12 15 0 24 -3 27 -25 21 -22 -5 -25 -3
-25 20 0 16 6 26 15 26 8 0 15 -4 15 -10 0 -5 5 -10 10 -10 6 0 10 9 10 20 0
18 -7 20 -81 20 -64 0 -79 -3 -72 -12 7 -9 5 -26 -7 -53 l-17 -40 -16 38 c-9
21 -14 44 -11 52 5 12 -6 15 -65 15 -41 0 -71 -4 -71 -10z"/>
<path d="M3100 468 c0 -17 3 -19 12 -10 7 7 20 12 30 12 15 0 18 -9 18 -59 0
-33 -4 -63 -10 -66 -20 -12 -9 -21 25 -21 34 0 45 9 25 21 -5 3 -10 33 -10 66
0 50 3 59 18 59 10 0 23 -5 30 -12 9 -9 12 -9 12 0 0 7 5 12 10 12 6 0 10 -28
10 -65 0 -37 -4 -65 -10 -65 -5 0 -10 -3 -10 -8 0 -4 18 -8 40 -8 22 -1 40 2
40 7 0 5 -4 9 -10 9 -5 0 -10 14 -10 30 0 28 3 30 36 30 33 0 36 -2 30 -24 -3
-13 -8 -30 -11 -38 -4 -10 4 -14 30 -14 34 0 45 9 25 21 -5 3 -10 33 -10 66 0
33 4 59 10 59 6 0 10 5 10 10 0 6 -16 10 -35 10 -19 0 -35 -4 -35 -10 0 -5 5
-10 10 -10 6 0 10 -9 10 -20 0 -16 -7 -20 -36 -20 -35 0 -36 1 -30 30 l6 30
-110 0 c-107 0 -110 -1 -110 -22z"/>
<path d="M4560 480 c0 -5 5 -10 10 -10 6 0 10 -28 10 -65 0 -37 -4 -65 -10
-65 -5 0 -10 -4 -10 -9 0 -13 111 -7 137 8 48 25 57 88 18 126 -21 22 -33 25
-90 25 -37 0 -65 -4 -65 -10z"/>
<path d="M1932 243 c-4 -1 -19 -4 -34 -7 -36 -8 -36 -32 -1 -68 23 -25 24 -28
9 -34 -11 -4 -21 -1 -26 7 -11 17 -24 5 -17 -16 7 -18 48 -20 65 -3 19 19 14
39 -15 70 -21 22 -23 28 -10 28 8 0 19 -5 22 -10 4 -7 12 -7 25 0 31 16 35 12
35 -35 0 -25 -3 -45 -7 -45 -5 0 -8 -4 -8 -10 0 -5 13 -10 29 -10 29 0 30 2
25 38 -3 20 -7 45 -9 54 -2 13 4 17 27 15 30 -2 30 -2 26 -54 l-5 -53 59 0
c32 0 58 4 58 10 0 6 -4 10 -10 10 -5 0 -10 13 -10 30 l0 29 39 -42 c22 -23
42 -40 44 -37 3 3 7 33 9 68 4 59 3 62 -19 62 -13 0 -23 -4 -23 -10 0 -5 5
-10 10 -10 6 0 10 -14 10 -32 l0 -32 -40 42 c-23 23 -43 42 -45 42 -3 0 -5
-25 -5 -55 0 -48 -2 -55 -20 -55 -17 0 -20 7 -20 45 0 25 5 45 10 45 6 0 10 4
10 9 0 8 -162 20 -188 14z"/>
<path d="M2437 233 c-15 -15 -5 -23 19 -17 l27 7 -5 -57 c-5 -56 -5 -56 24
-56 15 0 28 5 28 10 0 6 -4 10 -10 10 -5 0 -10 20 -10 45 0 43 1 44 31 42 l31
-2 -4 -52 c-4 -50 -3 -53 19 -53 20 0 23 4 17 28 l-6 27 26 -27 c20 -21 36
-28 66 -28 22 0 40 5 40 10 0 6 -4 10 -10 10 -5 0 -10 20 -10 45 0 25 5 45 10
45 6 0 10 5 10 10 0 6 -13 10 -28 10 -29 0 -29 0 -24 -55 5 -58 -3 -68 -32
-36 -15 16 -15 22 -5 39 10 17 10 23 0 36 -11 13 -34 16 -106 16 -50 0 -95 -3
-98 -7z"/>
<path d="M3114 193 c-9 -27 -23 -53 -31 -59 -20 -17 -16 -24 12 -24 19 0 25 5
23 17 -5 26 32 30 39 4 5 -18 13 -21 68 -21 68 0 98 16 110 57 10 37 -34 73
-88 73 l-44 0 5 -55 c3 -34 1 -55 -6 -55 -5 0 -20 25 -33 55 -12 30 -26 55
-30 55 -4 0 -15 -21 -25 -47z"/>
<path d="M3406 189 c-10 -28 -25 -53 -32 -56 -25 -9 -15 -23 17 -23 26 0 29 3
24 20 -5 16 -2 20 14 20 14 0 21 -6 21 -20 0 -17 7 -20 45 -20 44 0 45 1 39
28 -3 15 -8 34 -10 42 -3 8 15 -5 40 -29 25 -25 47 -43 50 -40 2 2 6 32 8 67
4 60 3 62 -19 62 -24 0 -25 -12 -7 -70 3 -8 -14 4 -38 28 -24 23 -47 42 -51
42 -4 0 -7 -25 -7 -55 0 -30 -4 -55 -9 -55 -4 0 -17 23 -28 52 -11 29 -24 53
-29 55 -6 2 -18 -20 -28 -48z"/>
<path d="M4070 230 c0 -5 5 -10 10 -10 6 0 10 -20 10 -45 0 -25 -4 -45 -10
-45 -5 0 -10 -4 -10 -9 0 -6 32 -10 70 -9 64 0 70 2 65 19 -5 14 -1 19 14 19
11 0 22 -9 26 -20 4 -13 15 -20 31 -20 26 0 33 15 10 23 -7 3 -22 28 -32 56
-10 28 -22 50 -27 48 -6 -2 -18 -25 -29 -52 -21 -53 -41 -83 -31 -46 3 11 0
27 -6 35 -6 7 -8 21 -5 31 4 10 1 21 -7 26 -19 12 -79 11 -79 -1z"/>
<path d="M4301 214 c-27 -34 -26 -50 4 -79 36 -37 105 -32 105 8 0 18 2 18 25
-7 33 -36 79 -33 108 6 17 23 19 33 11 55 -18 52 -104 57 -126 7 -10 -21 -18
-25 -40 -22 -19 3 -28 0 -28 -9 0 -7 5 -13 10 -13 6 0 10 -7 10 -15 0 -19 -34
-20 -49 -1 -7 8 -11 27 -9 43 2 21 9 29 27 31 13 2 28 -1 34 -7 17 -17 27 -13
27 9 0 17 -7 20 -44 20 -36 0 -48 -5 -65 -26z"/>
</g>
</svg>
